# xmcd
#
# Track frame offsets: 
#        150
#        25801
#        43502
#        57753
#        67954
#        80555
#        102981
#        117907
#        138059
#        155010
#
# Disc length: 2585 seconds
#
# Revision: 0
# Processed by: cddbd v1.5.2PL0 Copyright (c) Steve Scherf et al.
# Submitted via: ExactAudioCopy v0.99pb5
#
DISCID=7b0a170a
DTITLE=Elias Loeb - Dusty World
DYEAR=2010
DGENRE=
TTITLE0=Doctor Dear Doctor
TTITLE1=Who Pretends To Be A Lady
TTITLE2=Behind Me
TTITLE3=Once Again
TTITLE4=Ambers Lying
TTITLE5=Countess Of Blood
TTITLE6=Dusty World
TTITLE7=And If You Ask Me
TTITLE8=Goodbye My Love
TTITLE9=She´s Collecting Hearts
EXTD=
EXTT0=
EXTT1=
EXTT2=
EXTT3=
EXTT4=
EXTT5=
EXTT6=
EXTT7=
EXTT8=
EXTT9=
PLAYORDER=
